<svg width="40" height="40" viewBox="0 0 40 40" fill="none" xmlns="http://www.w3.org/2000/svg">
<g clip-path="url(#clip0_816_40)">
<mask id="mask0_816_40" style="mask-type:luminance" maskUnits="userSpaceOnUse" x="0" y="0" width="40" height="40">
<path d="M40 0H0V40H40V0Z" fill="white"/>
</mask>
<g mask="url(#mask0_816_40)">
<path d="M7.08334 3.22406e-06H32.9166C33.8472 -0.000896212 34.7686 0.186404 35.6284 0.551184C36.4882 0.915962 37.2694 1.45106 37.9272 2.12586C38.5852 2.80064 39.107 3.60188 39.4626 4.48372C39.8182 5.36554 40.0008 6.31066 40 7.26496V32.735C40.0008 33.6894 39.8182 34.6344 39.4626 35.5162C39.107 36.3982 38.5852 37.1994 37.9272 37.8742C37.2694 38.549 36.4882 39.084 35.6284 39.4488C34.7686 39.8136 33.8472 40.0008 32.9166 40H7.08334C6.1529 40.0008 5.2314 39.8136 4.37162 39.4488C3.51184 39.084 2.73064 38.549 2.0727 37.8742C1.41478 37.1994 0.893064 36.3982 0.537404 35.5162C0.181743 34.6344 -0.000873806 33.6894 3.14346e-06 32.735V7.26496C-0.000873806 6.31066 0.181743 5.36554 0.537404 4.48372C0.893064 3.60188 1.41478 2.80064 2.0727 2.12586C2.73064 1.45106 3.51184 0.915962 4.37162 0.551184C5.2314 0.186404 6.1529 -0.000896212 7.08334 3.22406e-06Z" fill="#66FFDB"/>
<path d="M11.4634 29.5846L10.9275 23.5776H14.3324L14.6045 26.6248L14.6355 26.9722L14.9722 27.0631L19.5132 28.2893V31.8191L11.4634 29.5846ZM10.6418 20.3816L10.3378 16.9895H19.5132V20.3816H10.6418ZM19.5132 11.492H9.85583L9.54751 8.09998H19.5132V11.492Z" fill="#EBEBEB"/>
<path d="M11.4634 29.5846L10.9275 23.5776H14.3324L14.6045 26.6248L14.6355 26.9722L14.9722 27.0631L19.5132 28.2893V31.8191L11.4634 29.5846ZM10.6418 20.3816L10.3378 16.9895H19.5132V20.3816H10.6418ZM19.5132 11.492H9.85583L9.54751 8.09998H19.5132V11.492Z" stroke="#0A182E"/>
<path d="M11.4634 29.5846L10.9275 23.5776H14.3324L14.6045 26.6248L14.6355 26.9722L14.9722 27.0631L19.5132 28.2893V31.8191L11.4634 29.5846ZM10.6418 20.3816L10.3378 16.9895H19.5132V20.3816H10.6418ZM19.5132 11.492H9.85583L9.54751 8.09998H19.5132V11.492Z" stroke="#0A182E" stroke-opacity="0.2"/>
<path d="M30.2071 16.4895L30.9999 7.59998H19.9979V11.992H26.1867L25.7871 16.4895H19.9979V20.8816H25.4063L24.8963 26.5776L19.9978 27.8998V32.4692L29.0017 29.9738L29.0677 29.2318L30.0999 17.6689L30.2071 16.4895Z" fill="#0A182E"/>
</g>
</g>
<defs>
<clipPath id="clip0_816_40">
<rect width="40" height="40" fill="white"/>
</clipPath>
</defs>
</svg>
