<svg width="150" height="150" viewBox="0 0 150 150" fill="none" xmlns="http://www.w3.org/2000/svg">
<g clip-path="url(#clip0_843_36)">
<mask id="mask0_843_36" style="mask-type:luminance" maskUnits="userSpaceOnUse" x="0" y="0" width="150" height="150">
<path d="M150 0H0V150H150V0Z" fill="white"/>
</mask>
<g mask="url(#mask0_843_36)">
<mask id="mask1_843_36" style="mask-type:luminance" maskUnits="userSpaceOnUse" x="0" y="0" width="150" height="150">
<path d="M150 0H0V150H150V0Z" fill="white"/>
</mask>
<g mask="url(#mask1_843_36)">
<path d="M26.5625 1.20902e-05H123.437C126.927 -0.00336079 130.382 0.699013 133.606 2.06694C136.831 3.43486 139.76 5.44148 142.227 7.97198C144.695 10.5024 146.651 13.507 147.985 16.814C149.318 20.1208 150.003 23.665 150 27.2436V122.756C150.003 126.335 149.318 129.879 147.985 133.186C146.651 136.493 144.695 139.498 142.227 142.028C139.76 144.559 136.831 146.565 133.606 147.933C130.382 149.301 126.927 150.003 123.437 150H26.5625C23.0734 150.003 19.6178 149.301 16.3936 147.933C13.1694 146.565 10.2399 144.559 7.77262 142.028C5.30544 139.498 3.34899 136.493 2.01527 133.186C0.681538 129.879 -0.00327677 126.335 1.1788e-05 122.756V27.2436C-0.00327677 23.665 0.681538 20.1208 2.01527 16.814C3.34899 13.507 5.30544 10.5024 7.77262 7.97198C10.2399 5.44148 13.1694 3.43486 16.3936 2.06694C19.6178 0.699013 23.0734 -0.00336079 26.5625 1.20902e-05Z" fill="#66FFDB"/>
<path d="M41.5859 112.11L39.3382 86.916H55.1187L56.261 99.7095L56.2842 99.9705L56.5367 100.039L74.6745 104.936V121.294L41.5859 112.11ZM38.5352 77.931L37.1264 62.2107H74.6745V77.931H38.5352ZM35.5895 44.5951L34.1606 28.875H74.6745V44.5951H35.5895Z" fill="#EBEBEB"/>
<path d="M41.5859 112.11L39.3382 86.916H55.1187L56.261 99.7095L56.2842 99.9705L56.5367 100.039L74.6745 104.936V121.294L41.5859 112.11ZM38.5352 77.931L37.1264 62.2107H74.6745V77.931H38.5352ZM35.5895 44.5951L34.1606 28.875H74.6745V44.5951H35.5895Z" stroke="#0A182E"/>
<path d="M41.5859 112.11L39.3382 86.916H55.1187L56.261 99.7095L56.2842 99.9705L56.5367 100.039L74.6745 104.936V121.294L41.5859 112.11ZM38.5352 77.931L37.1264 62.2107H74.6745V77.931H38.5352ZM35.5895 44.5951L34.1606 28.875H74.6745V44.5951H35.5895Z" stroke="#0A182E" stroke-opacity="0.2"/>
<path d="M113.277 61.8357L116.25 28.5H74.9927V44.9701H98.2006L96.7021 61.8357H74.9927V78.306H95.2741L93.3616 99.666L74.9922 104.624V121.76L108.757 112.402L109.004 109.619L112.875 66.2585L113.277 61.8357Z" fill="#0A182E"/>
</g>
</g>
</g>
<defs>
<clipPath id="clip0_843_36">
<rect width="150" height="150" fill="white"/>
</clipPath>
</defs>
</svg>
