<svg width="20" height="18" viewBox="0 0 20 18" fill="none" xmlns="http://www.w3.org/2000/svg">
<path d="M18.2222 10L17.3526 3.5963C17.1506 2.10911 15.8807 1 14.3799 1H5.62013C4.11929 1 2.84938 2.10911 2.64742 3.5963L1.77778 10M18.2222 10L18.6299 13.6687C18.8273 15.4458 17.4362 17 15.6482 17H4.3518C2.56376 17 1.17269 15.4458 1.37014 13.6687L1.77778 10M18.2222 10H15.6056C14.6025 10 13.6658 10.5013 13.1094 11.3359L12.8906 11.6641C12.3342 12.4987 11.3975 13 10.3944 13H9.60555C8.60249 13 7.6658 12.4987 7.1094 11.6641L6.8906 11.3359C6.3342 10.5013 5.39751 10 4.39445 10H1.77778M8 8H12M6 5H14" stroke="white" stroke-width="1.5" stroke-linecap="round" stroke-linejoin="round"/>
</svg>
