<svg width="58" height="58" viewBox="0 0 58 58" fill="none" xmlns="http://www.w3.org/2000/svg">
<g clip-path="url(#clip0_845_27)">
<mask id="mask0_845_27" style="mask-type:luminance" maskUnits="userSpaceOnUse" x="0" y="0" width="58" height="58">
<path d="M58 0H0V58H58V0Z" fill="white"/>
</mask>
<g mask="url(#mask0_845_27)">
<mask id="mask1_845_27" style="mask-type:luminance" maskUnits="userSpaceOnUse" x="0" y="0" width="58" height="58">
<path d="M58 0H0V58H58V0Z" fill="white"/>
</mask>
<g mask="url(#mask1_845_27)">
<mask id="mask2_845_27" style="mask-type:luminance" maskUnits="userSpaceOnUse" x="0" y="0" width="58" height="58">
<path d="M58 0H0V58H58V0Z" fill="white"/>
</mask>
<g mask="url(#mask2_845_27)">
<mask id="mask3_845_27" style="mask-type:luminance" maskUnits="userSpaceOnUse" x="0" y="0" width="58" height="58">
<path d="M58 0H0V58H58V0Z" fill="white"/>
</mask>
<g mask="url(#mask3_845_27)">
<path fill-rule="evenodd" clip-rule="evenodd" d="M29.024 0C12.9745 0 0 13.0702 0 29.2395C0 42.1648 8.31319 53.1056 19.8459 56.978C21.2877 57.2691 21.8159 56.3487 21.8159 55.5748C21.8159 54.8969 21.7682 52.5733 21.7682 50.1525C13.6946 51.8955 12.0133 46.6669 12.0133 46.6669C10.7158 43.2781 8.79323 42.4072 8.79323 42.4072C6.15069 40.6159 8.98573 40.6159 8.98573 40.6159C11.9169 40.8096 13.4552 43.6174 13.4552 43.6174C16.0495 48.0707 20.2302 46.8124 21.9121 46.0377C22.1522 44.1497 22.9215 42.8426 23.7382 42.1167C17.2988 41.4389 10.5238 38.9216 10.5238 27.6904C10.5238 24.4951 11.6763 21.8812 13.5026 19.8482C13.2145 19.1223 12.2052 16.1203 13.7912 12.1023C13.7912 12.1023 16.2421 11.3277 21.7676 15.1037C24.1335 14.4637 26.5732 14.1381 29.024 14.1353C31.4746 14.1353 33.9728 14.4747 36.2798 15.1037C41.8061 11.3277 44.2567 12.1023 44.2567 12.1023C45.8429 16.1203 44.8328 19.1223 44.5448 19.8482C46.4191 21.8812 47.524 24.4951 47.524 27.6904C47.524 38.9216 40.7491 41.3902 34.2615 42.1167C35.3191 43.0363 36.2317 44.7788 36.2317 47.5383C36.2317 51.4593 36.1841 54.6064 36.1841 55.5741C36.1841 56.3487 36.7128 57.2691 38.1541 56.9786C49.6866 53.1051 57.9999 42.1648 57.9999 29.2395C58.0473 13.0702 45.0254 0 29.024 0Z" fill="#66FFDB"/>
</g>
</g>
</g>
</g>
</g>
<defs>
<clipPath id="clip0_845_27">
<rect width="58" height="58" fill="white"/>
</clipPath>
</defs>
</svg>
