<svg width="40" height="40" viewBox="0 0 40 40" fill="none" xmlns="http://www.w3.org/2000/svg">
<g clip-path="url(#clip0_505_53)">
<mask id="mask0_505_53" style="mask-type:luminance" maskUnits="userSpaceOnUse" x="0" y="0" width="40" height="40">
<path d="M40 0H0V40H40V0Z" fill="white"/>
</mask>
<g mask="url(#mask0_505_53)">
<mask id="mask1_505_53" style="mask-type:luminance" maskUnits="userSpaceOnUse" x="0" y="0" width="40" height="40">
<path d="M40 0H0V40H40V0Z" fill="white"/>
</mask>
<g mask="url(#mask1_505_53)">
<mask id="mask2_505_53" style="mask-type:luminance" maskUnits="userSpaceOnUse" x="0" y="0" width="40" height="40">
<path d="M40 0H0V40H40V0Z" fill="white"/>
</mask>
<g mask="url(#mask2_505_53)">
<mask id="mask3_505_53" style="mask-type:luminance" maskUnits="userSpaceOnUse" x="0" y="0" width="40" height="40">
<path d="M40 0H0V40H40V0Z" fill="white"/>
</mask>
<g mask="url(#mask3_505_53)">
<path d="M7.08333 3.22406e-06H32.9165C33.8472 -0.000896211 34.7685 0.186403 35.6283 0.551184C36.4883 0.915963 37.2693 1.45106 37.9272 2.12586C38.5853 2.80064 39.1069 3.60187 39.4627 4.48373C39.8181 5.36555 40.0008 6.31067 40 7.26496V32.7349C40.0008 33.6893 39.8181 34.6344 39.4627 35.5163C39.1069 36.3981 38.5853 37.1995 37.9272 37.8741C37.2693 38.5491 36.4883 39.084 35.6283 39.4488C34.7685 39.8136 33.8472 40.0008 32.9165 40H7.08333C6.15291 40.0008 5.23141 39.8136 4.37163 39.4488C3.51184 39.084 2.73064 38.5491 2.0727 37.8741C1.41478 37.1995 0.893064 36.3981 0.537405 35.5163C0.181743 34.6344 -0.000873805 33.6893 3.14345e-06 32.7349V7.26496C-0.000873805 6.31067 0.181743 5.36555 0.537405 4.48373C0.893064 3.60187 1.41478 2.80064 2.0727 2.12586C2.73064 1.45106 3.51184 0.915963 4.37163 0.551184C5.23141 0.186403 6.15291 -0.000896211 7.08333 3.22406e-06Z" fill="#66FFDB"/>
<path d="M26.9378 31.2984C27.7434 32.6141 28.7917 33.581 30.6458 33.581C32.2032 33.581 33.1981 32.8026 33.1981 31.7269C33.1981 30.4378 32.1757 29.9816 30.4616 29.2317L29.5221 28.8285C26.8096 27.673 25.0076 26.2254 25.0076 23.1649C25.0076 20.346 27.1554 18.2 30.5122 18.2C32.9021 18.2 34.6205 19.0317 35.8584 21.2096L32.9314 23.0888C32.2869 21.9334 31.5917 21.478 30.5122 21.478C29.4114 21.478 28.7136 22.1766 28.7136 23.0888C28.7136 24.2166 29.412 24.673 31.0248 25.3714L31.9645 25.7739C35.1581 27.1434 36.961 28.5397 36.961 31.6789C36.961 35.0629 34.3026 36.9168 30.7325 36.9168C27.2418 36.9168 24.9866 35.2533 23.8832 33.073L26.9378 31.2984ZM13.6597 31.6242C14.2501 32.6717 14.7873 33.5573 16.0787 33.5573C17.3136 33.5573 18.0927 33.0741 18.0927 31.1957V18.4145H21.8514V31.2464C21.8514 35.1384 19.5695 36.9098 16.2387 36.9098C13.2292 36.9098 11.4863 35.3525 10.6 33.4765L13.6597 31.6242Z" fill="#0A182E"/>
</g>
</g>
</g>
</g>
</g>
<defs>
<clipPath id="clip0_505_53">
<rect width="40" height="40" fill="white"/>
</clipPath>
</defs>
</svg>
