<svg width="150" height="150" viewBox="0 0 150 150" fill="none" xmlns="http://www.w3.org/2000/svg">
<g clip-path="url(#clip0_843_21)">
<mask id="mask0_843_21" style="mask-type:luminance" maskUnits="userSpaceOnUse" x="0" y="0" width="150" height="150">
<path d="M150 0H0V150H150V0Z" fill="white"/>
</mask>
<g mask="url(#mask0_843_21)">
<mask id="mask1_843_21" style="mask-type:luminance" maskUnits="userSpaceOnUse" x="0" y="0" width="150" height="150">
<path d="M150 0H0V150H150V0Z" fill="white"/>
</mask>
<g mask="url(#mask1_843_21)">
<mask id="mask2_843_21" style="mask-type:luminance" maskUnits="userSpaceOnUse" x="0" y="0" width="150" height="150">
<path d="M150 0H0V150H150V0Z" fill="white"/>
</mask>
<g mask="url(#mask2_843_21)">
<path d="M26.5625 1.20902e-05H123.437C126.927 -0.00336079 130.382 0.699013 133.606 2.06694C136.831 3.43486 139.76 5.44148 142.227 7.97198C144.695 10.5024 146.651 13.507 147.985 16.814C149.318 20.1208 150.003 23.665 150 27.2436V122.756C150.003 126.335 149.318 129.879 147.985 133.186C146.651 136.493 144.695 139.498 142.227 142.028C139.76 144.559 136.831 146.565 133.606 147.933C130.382 149.301 126.927 150.003 123.437 150H26.5625C23.0734 150.003 19.6178 149.301 16.3936 147.933C13.1694 146.565 10.2399 144.559 7.77262 142.028C5.30544 139.498 3.34899 136.493 2.01527 133.186C0.681538 129.879 -0.00327677 126.335 1.1788e-05 122.756V27.2436C-0.00327677 23.665 0.681538 20.1208 2.01527 16.814C3.34899 13.507 5.30544 10.5024 7.77262 7.97198C10.2399 5.44148 13.1694 3.43486 16.3936 2.06694C19.6178 0.699013 23.0734 -0.00336079 26.5625 1.20902e-05Z" fill="#66FFDB"/>
<path d="M101.017 117.369C104.038 122.303 107.969 125.929 114.922 125.929C120.762 125.929 124.493 123.01 124.493 118.976C124.493 114.142 120.659 112.431 114.231 109.619L110.708 108.107C100.536 103.774 93.7785 98.3453 93.7785 86.8687C93.7785 76.2975 101.833 68.25 114.421 68.25C123.383 68.25 129.827 71.369 134.469 79.536L123.493 86.583C121.076 82.2503 118.469 80.5425 114.421 80.5425C110.293 80.5425 107.676 83.1623 107.676 86.583C107.676 90.8123 110.295 92.5238 116.343 95.1428L119.867 96.6525C131.843 101.788 138.604 107.024 138.604 118.796C138.604 131.486 128.635 138.438 115.247 138.438C102.157 138.438 93.6998 132.2 89.562 124.024L101.017 117.369ZM51.2238 118.591C53.4381 122.519 55.4524 125.84 60.2953 125.84C64.9262 125.84 67.8476 124.028 67.8476 116.984V69.0547H81.9428V117.174C81.9428 131.769 73.3857 138.412 60.8953 138.412C49.6095 138.412 43.0738 132.572 39.75 125.537L51.2238 118.591Z" fill="#0A182E"/>
</g>
</g>
</g>
</g>
<defs>
<clipPath id="clip0_843_21">
<rect width="150" height="150" fill="white"/>
</clipPath>
</defs>
</svg>
