<svg width="150" height="150" viewBox="0 0 150 150" fill="none" xmlns="http://www.w3.org/2000/svg">
<mask id="mask0_843_20" style="mask-type:luminance" maskUnits="userSpaceOnUse" x="0" y="0" width="150" height="150">
<path d="M150 0H0V150H150V0Z" fill="white"/>
</mask>
<g mask="url(#mask0_843_20)">
<path fill-rule="evenodd" clip-rule="evenodd" d="M149.917 15.7462C149.972 15.509 150 15.2704 150 15.0304C150 6.72935 116.421 0 75 0C33.5786 0 0 6.72935 0 15.0304C0 15.2704 0.0280555 15.509 0.0835455 15.7462H0V133.365V133.604H0.0077175C0.589073 142.586 33.9416 149.827 75 149.827C116.058 149.827 149.411 142.586 149.992 133.604H150V133.365V15.7462H149.917Z" fill="#66FFDB"/>
<path d="M33.4849 122.482C31.3435 122.482 29.293 122.337 27.3334 122.045C25.394 121.773 23.7071 121.445 22.2728 121.064C20.8385 120.663 19.8283 120.3 19.2425 119.973L20.6364 112.064C21.3839 112.445 22.394 112.836 23.6667 113.236C24.9395 113.637 26.3435 113.982 27.8788 114.273C29.4344 114.545 31.0001 114.682 32.5758 114.682C34.697 114.682 36.2324 114.409 37.1819 113.864C38.1516 113.318 38.6364 112.445 38.6364 111.245C38.6364 110.373 38.3435 109.636 37.7576 109.036C37.1718 108.418 36.2021 107.791 34.8485 107.155C33.5152 106.518 31.7273 105.718 29.4849 104.755C27.5859 103.936 25.8385 102.973 24.2425 101.864C22.6465 100.737 21.3637 99.3907 20.394 97.8273C19.4243 96.2455 18.9395 94.3725 18.9395 92.2091C18.9395 90.3546 19.3233 88.7366 20.091 87.3545C20.8788 85.9548 21.9798 84.7909 23.394 83.8636C24.8283 82.9364 26.5253 82.2457 28.4849 81.7909C30.4445 81.3184 32.6162 81.0818 35.0001 81.0818C38.394 81.0818 41.1616 81.3634 43.3031 81.9273C45.4445 82.4911 46.9192 82.9909 47.7273 83.4273L45.9698 91.0091C45.0607 90.373 43.6566 89.7907 41.7576 89.2636C39.8788 88.7182 37.9495 88.4455 35.9698 88.4455C34.5556 88.4455 33.394 88.5907 32.4849 88.8818C31.5758 89.1546 30.8991 89.5452 30.4546 90.0546C30.0101 90.5639 29.7879 91.1543 29.7879 91.8273C29.7879 92.6455 30.0506 93.373 30.5758 94.0091C31.1213 94.6275 31.9597 95.2452 33.091 95.8636C34.2425 96.4636 35.7273 97.1366 37.5455 97.8818C39.4849 98.6639 41.2122 99.4636 42.7273 100.282C44.2627 101.1 45.5657 101.991 46.6364 102.955C47.7071 103.918 48.5152 105.018 49.0607 106.255C49.6263 107.473 49.9091 108.882 49.9091 110.482C49.9091 112.9 49.2728 115.009 48.0001 116.809C46.7476 118.609 44.8991 120.009 42.4546 121.009C40.0101 121.991 37.0203 122.482 33.4849 122.482ZM88.3114 131.482C84.9781 131.482 82.291 131.173 80.2508 130.555C78.2099 129.936 76.6038 128.918 75.4323 127.5C74.2607 126.1 73.301 124.209 72.5535 121.827L77.9478 120.573H81.0387C81.3819 121.645 81.8667 122.436 82.4932 122.945C83.119 123.473 83.9978 123.818 85.1296 123.982C86.2607 124.145 87.7455 124.227 89.5841 124.227C90.4326 124.227 91.2705 124.145 92.0993 123.982C92.9273 123.818 93.6448 123.646 94.2508 123.464V130.282C93.7054 130.518 92.9372 130.773 91.9478 131.045C90.9576 131.337 89.7455 131.482 88.3114 131.482ZM75.5838 122.482C71.1395 122.555 67.3414 121.745 64.1899 120.055C61.0586 118.345 58.6748 115.918 57.0384 112.773C55.4223 109.609 54.6546 105.882 54.7354 101.591C54.8364 96.7909 55.8162 92.9093 57.6748 89.9455C59.5535 86.9639 62.1092 84.7725 65.3414 83.3727C68.5738 81.9546 72.2707 81.1909 76.4326 81.0818C80.6948 80.9727 84.3516 81.7548 87.4023 83.4273C90.4523 85.0821 92.7758 87.4725 94.372 90.6C95.9879 93.7275 96.7554 97.4271 96.6751 101.7C96.5735 106.5 95.6243 110.418 93.8266 113.455C92.0281 116.491 89.5637 118.737 86.4326 120.191C83.3008 121.645 79.6849 122.409 75.5838 122.482ZM75.766 115.173C78.6751 115.173 80.9675 114.118 82.6448 112.009C84.3213 109.882 85.1599 106.355 85.1599 101.427C85.1599 98.882 84.8364 96.6457 84.1902 94.7182C83.5432 92.7907 82.5637 91.2907 81.2508 90.2182C79.9372 89.1457 78.2705 88.6091 76.2508 88.6091C74.4122 88.6091 72.7354 89.0182 71.2202 89.8364C69.7051 90.6545 68.4929 92.0271 67.5838 93.9546C66.695 95.8821 66.2505 98.518 66.2505 101.864C66.2505 104.446 66.6041 106.737 67.3111 108.736C68.0182 110.736 69.0687 112.309 70.4626 113.455C71.8768 114.6 73.6445 115.173 75.766 115.173ZM104.505 122.045V81.5182H115.657V113.864H130.869V122.045H104.505Z" fill="#0A182E"/>
</g>
</svg>
